<?xml version="1.0" encoding="utf-8"?>
<!-- Generator: Adobe Illustrator 16.0.0, SVG Export Plug-In . SVG Version: 6.00 Build 0)  -->
<!DOCTYPE svg PUBLIC "-//W3C//DTD SVG 1.1//EN" "http://www.w3.org/Graphics/SVG/1.1/DTD/svg11.dtd">
<svg version="1.1" id="Layer_1" xmlns="http://www.w3.org/2000/svg" xmlns:xlink="http://www.w3.org/1999/xlink" x="0px" y="0px"
	 width="133.468px" height="24.15px" viewBox="0 0 133.468 24.15" enable-background="new 0 0 133.468 24.15" xml:space="preserve">
<g>
	<path d="M12,24.06c-1.661,0-3.215-0.315-4.665-0.945c-1.45-0.63-2.72-1.49-3.81-2.58c-1.09-1.09-1.95-2.36-2.58-3.81
		C0.315,15.275,0,13.72,0,12.06c0-1.66,0.315-3.225,0.945-4.695c0.63-1.47,1.49-2.75,2.58-3.84c1.09-1.09,2.36-1.95,3.81-2.58
		C8.785,0.315,10.339,0,12,0c1.62,0,3.16,0.305,4.62,0.915c1.46,0.61,2.76,1.485,3.9,2.625l-4.2,4.2
		c-0.58-0.58-1.24-1.015-1.98-1.305C13.6,6.146,12.82,6,12,6c-0.82,0-1.601,0.16-2.34,0.48C8.92,6.8,8.275,7.23,7.725,7.77
		C7.174,8.31,6.74,8.95,6.42,9.69c-0.32,0.74-0.48,1.53-0.48,2.37s0.16,1.63,0.48,2.37c0.32,0.74,0.754,1.38,1.305,1.92
		c0.55,0.54,1.195,0.97,1.935,1.29c0.74,0.32,1.52,0.48,2.34,0.48c0.82,0,1.6-0.155,2.34-0.465c0.74-0.31,1.4-0.755,1.98-1.335
		l4.2,4.2c-1.14,1.14-2.44,2.015-3.9,2.625C15.16,23.755,13.62,24.06,12,24.06z"/>
	<path d="M30.689,24.06c-1.661,0-3.215-0.315-4.665-0.945c-1.45-0.63-2.72-1.49-3.81-2.58c-1.09-1.09-1.95-2.36-2.58-3.81
		c-0.63-1.45-0.945-3.005-0.945-4.665c0-1.64,0.315-3.19,0.945-4.65s1.49-2.735,2.58-3.825c1.09-1.09,2.36-1.95,3.81-2.58
		c1.45-0.63,3.004-0.945,4.665-0.945c1.64,0,3.19,0.315,4.65,0.945c1.459,0.63,2.735,1.49,3.825,2.58
		c1.09,1.09,1.95,2.365,2.58,3.825c0.63,1.46,0.945,3.01,0.945,4.65c0,1.66-0.315,3.215-0.945,4.665c-0.63,1.45-1.49,2.72-2.58,3.81
		c-1.09,1.09-2.366,1.95-3.825,2.58C33.879,23.745,32.329,24.06,30.689,24.06z M30.689,6.06c-0.84,0-1.63,0.16-2.37,0.48
		c-0.74,0.32-1.38,0.75-1.92,1.29s-0.97,1.175-1.29,1.905c-0.32,0.73-0.48,1.505-0.48,2.325c0,0.84,0.16,1.63,0.48,2.37
		c0.32,0.74,0.75,1.38,1.29,1.92s1.18,0.97,1.92,1.29c0.74,0.32,1.53,0.48,2.37,0.48c0.82,0,1.595-0.16,2.325-0.48
		c0.73-0.32,1.365-0.75,1.905-1.29s0.97-1.18,1.29-1.92c0.319-0.74,0.48-1.53,0.48-2.37c0-0.82-0.161-1.595-0.48-2.325
		c-0.32-0.729-0.75-1.365-1.29-1.905s-1.175-0.97-1.905-1.29C32.284,6.22,31.509,6.06,30.689,6.06z"/>
	<path d="M65.699,24.06h-5.88v-12.9c0-0.72-0.135-1.395-0.405-2.025c-0.27-0.63-0.64-1.175-1.11-1.635
		c-0.47-0.46-1.02-0.825-1.65-1.095C56.024,6.135,55.359,6,54.659,6c-0.72,0-1.395,0.135-2.025,0.405
		c-0.63,0.27-1.185,0.635-1.665,1.095c-0.48,0.46-0.855,1.005-1.125,1.635c-0.27,0.63-0.405,1.305-0.405,2.025v12.9h-5.88v-12.9
		c0-1.52,0.29-2.955,0.87-4.305c0.58-1.35,1.375-2.53,2.385-3.54c1.01-1.01,2.185-1.805,3.525-2.385s2.78-0.87,4.32-0.87
		c1.52,0,2.955,0.29,4.305,0.87c1.35,0.58,2.52,1.375,3.51,2.385c0.99,1.01,1.775,2.19,2.355,3.54s0.87,2.785,0.87,4.305V24.06z"/>
	<path fill="#00AEEF" d="M87.84,24.12h-5.881v-12.9c0-0.72-0.135-1.395-0.404-2.025c-0.27-0.63-0.641-1.175-1.111-1.635
		c-0.469-0.46-1.02-0.825-1.648-1.095C78.164,6.195,77.5,6.06,76.799,6.06c-0.719,0-1.395,0.135-2.025,0.405
		C74.145,6.735,73.59,7.1,73.109,7.56c-0.48,0.46-0.855,1.005-1.125,1.635c-0.27,0.63-0.404,1.305-0.404,2.025v12.9h-5.881v-12.9
		c0-1.52,0.29-2.955,0.87-4.305c0.58-1.35,1.375-2.53,2.385-3.54c1.01-1.01,2.185-1.805,3.524-2.385s2.781-0.87,4.32-0.87
		c1.52,0,2.955,0.29,4.305,0.87c1.352,0.58,2.521,1.375,3.51,2.385c0.99,1.01,1.775,2.19,2.355,3.54S87.84,9.7,87.84,11.22V24.12z"
		/>
	<path display="none" d="M101.578,24.06c-1.661,0-3.216-0.315-4.666-0.945c-1.449-0.63-2.72-1.49-3.81-2.58
		c-1.091-1.09-1.95-2.36-2.58-3.81c-0.63-1.45-0.944-3.005-0.944-4.665c0-1.64,0.314-3.19,0.944-4.65s1.489-2.735,2.58-3.825
		c1.09-1.09,2.36-1.95,3.81-2.58c1.45-0.63,3.005-0.945,4.666-0.945c1.639,0,3.189,0.315,4.649,0.945
		c1.46,0.63,2.735,1.49,3.825,2.58c1.09,1.09,1.949,2.365,2.58,3.825c0.63,1.46,0.945,3.01,0.945,4.65
		c0,1.66-0.315,3.215-0.945,4.665c-0.631,1.45-1.49,2.72-2.58,3.81c-1.09,1.09-2.365,1.95-3.825,2.58
		C104.768,23.745,103.217,24.06,101.578,24.06z M101.578,6.06c-0.841,0-1.631,0.16-2.371,0.48c-0.74,0.32-1.379,0.75-1.92,1.29
		c-0.539,0.54-0.97,1.175-1.289,1.905c-0.32,0.73-0.48,1.505-0.48,2.325c0,0.84,0.16,1.63,0.48,2.37
		c0.319,0.74,0.75,1.38,1.289,1.92c0.541,0.54,1.18,0.97,1.92,1.29c0.74,0.32,1.53,0.48,2.371,0.48c0.819,0,1.594-0.16,2.324-0.48
		c0.73-0.32,1.365-0.75,1.905-1.29s0.97-1.18,1.29-1.92c0.319-0.74,0.48-1.53,0.48-2.37c0-0.82-0.161-1.595-0.48-2.325
		c-0.32-0.729-0.75-1.365-1.29-1.905s-1.175-0.97-1.905-1.29C103.172,6.22,102.397,6.06,101.578,6.06z"/>
	<g>
		<path d="M123.731,24.15c-1.66,0-3.215-0.315-4.664-0.945c-1.451-0.63-2.721-1.49-3.811-2.58c-1.09-1.09-1.949-2.36-2.58-3.81
			c-0.629-1.45-0.945-3.005-0.945-4.665c0-1.66,0.316-3.225,0.945-4.695c0.631-1.47,1.49-2.75,2.58-3.84
			c1.09-1.09,2.359-1.95,3.811-2.58c1.449-0.63,3.004-0.945,4.664-0.945c1.621,0,3.16,0.305,4.621,0.915
			c1.459,0.61,2.76,1.485,3.9,2.625l-4.201,4.2c-0.58-0.58-1.24-1.015-1.979-1.305c-0.74-0.29-1.521-0.435-2.342-0.435
			s-1.6,0.16-2.34,0.48c-0.74,0.32-1.385,0.75-1.934,1.29c-0.551,0.54-0.986,1.18-1.307,1.92c-0.318,0.74-0.479,1.53-0.479,2.37
			s0.16,1.63,0.479,2.37c0.32,0.74,0.756,1.38,1.307,1.92c0.549,0.54,1.193,0.97,1.934,1.29c0.74,0.32,1.52,0.48,2.34,0.48
			s1.602-0.155,2.342-0.465c0.738-0.31,1.398-0.755,1.979-1.335l4.201,4.2c-1.141,1.14-2.441,2.015-3.9,2.625
			C126.892,23.846,125.353,24.15,123.731,24.15z"/>
		<polygon points="126.95,15.314 133.468,15.313 133.466,21.831 131.16,19.524 129.257,17.62 		"/>
	</g>
	<path d="M98.248,17.7c-0.74-0.32-1.389-0.76-1.949-1.32c-0.561-0.56-1-1.209-1.32-1.95c-0.32-0.74-0.48-1.53-0.48-2.37
		s0.16-1.63,0.48-2.37c0.32-0.74,0.76-1.39,1.32-1.95c0.561-0.56,1.209-1,1.949-1.32c0.74-0.319,1.531-0.48,2.371-0.48
		c1.141,0,2.174,0.285,3.105,0.855c0.93,0.57,1.654,1.325,2.174,2.265h-9.6l-0.031,5.445l12.688,0.062l2.024,0.005
		c-0.159-0.781-0.239-1.588-0.239-2.422c0-1.66,0.316-3.225,0.945-4.695c0.014-0.033,0.032-0.063,0.046-0.096
		c-0.63-1.468-1.488-2.746-2.577-3.835c-1.09-1.09-2.371-1.95-3.84-2.58C103.844,0.315,102.279,0,100.619,0
		s-3.225,0.315-4.695,0.945c-1.471,0.63-2.75,1.49-3.84,2.58c-1.09,1.09-1.949,2.37-2.58,3.84c-0.631,1.47-0.945,3.035-0.945,4.695
		c0,1.66,0.314,3.225,0.945,4.695c0.631,1.47,1.49,2.75,2.58,3.84c1.09,1.09,2.369,1.95,3.84,2.58
		c1.471,0.63,3.035,0.945,4.695,0.945h9.211l0.088-5.94h-9.299C99.779,18.18,98.988,18.021,98.248,17.7z"/>
</g>
</svg>
