<?xml version="1.0" encoding="utf-8"?>
<!-- Generator: Adobe Illustrator 16.0.0, SVG Export Plug-In . SVG Version: 6.00 Build 0)  -->
<!DOCTYPE svg PUBLIC "-//W3C//DTD SVG 1.1//EN" "http://www.w3.org/Graphics/SVG/1.1/DTD/svg11.dtd">
<svg version="1.1" id="Layer_1" xmlns="http://www.w3.org/2000/svg" xmlns:xlink="http://www.w3.org/1999/xlink" x="0px" y="0px"
	 width="133.468px" height="24.15px" viewBox="0 0 133.468 24.15" enable-background="new 0 0 133.468 24.15" xml:space="preserve">
<g>
	<path fill="#FFFFFF" d="M12,24.06c-1.661,0-3.215-0.315-4.665-0.945s-2.72-1.49-3.81-2.58c-1.09-1.09-1.95-2.36-2.58-3.81
		C0.315,15.275,0,13.719,0,12.06c0-1.66,0.315-3.226,0.945-4.695c0.63-1.47,1.49-2.75,2.58-3.84c1.09-1.09,2.36-1.95,3.81-2.58
		S10.339,0,12,0c1.62,0,3.16,0.306,4.62,0.915c1.46,0.61,2.76,1.485,3.9,2.625l-4.2,4.2c-0.58-0.58-1.24-1.015-1.98-1.305
		C13.6,6.146,12.82,6,12,6s-1.601,0.16-2.34,0.48C8.92,6.8,8.275,7.23,7.725,7.77C7.174,8.31,6.74,8.95,6.42,9.69
		c-0.32,0.74-0.48,1.529-0.48,2.37c0,0.84,0.16,1.63,0.48,2.37c0.32,0.739,0.754,1.38,1.305,1.92c0.55,0.54,1.195,0.97,1.935,1.29
		C10.4,17.96,11.18,18.12,12,18.12s1.6-0.155,2.34-0.465c0.74-0.311,1.4-0.755,1.98-1.335l4.2,4.2c-1.14,1.14-2.44,2.015-3.9,2.625
		C15.16,23.755,13.62,24.06,12,24.06z"/>
	<path fill="#FFFFFF" d="M30.689,24.06c-1.661,0-3.215-0.315-4.665-0.945c-1.45-0.63-2.72-1.49-3.81-2.58
		c-1.09-1.09-1.95-2.36-2.58-3.81c-0.63-1.45-0.945-3.006-0.945-4.665c0-1.641,0.315-3.19,0.945-4.65
		c0.63-1.46,1.49-2.735,2.58-3.825c1.09-1.09,2.36-1.95,3.81-2.58c1.45-0.63,3.004-0.944,4.665-0.944c1.64,0,3.19,0.314,4.65,0.944
		c1.459,0.63,2.735,1.49,3.825,2.58s1.95,2.365,2.58,3.825c0.63,1.46,0.945,3.01,0.945,4.65c0,1.659-0.315,3.215-0.945,4.665
		c-0.63,1.449-1.49,2.72-2.58,3.81s-2.366,1.95-3.825,2.58C33.879,23.745,32.329,24.06,30.689,24.06z M30.689,6.06
		c-0.84,0-1.63,0.159-2.37,0.479c-0.74,0.32-1.38,0.75-1.92,1.29s-0.97,1.175-1.29,1.905c-0.32,0.729-0.48,1.505-0.48,2.325
		c0,0.84,0.16,1.63,0.48,2.37c0.32,0.739,0.75,1.38,1.29,1.92s1.18,0.97,1.92,1.29c0.74,0.319,1.53,0.479,2.37,0.479
		c0.82,0,1.595-0.16,2.325-0.479c0.73-0.32,1.365-0.75,1.905-1.29s0.97-1.181,1.29-1.92c0.319-0.74,0.48-1.53,0.48-2.37
		c0-0.82-0.161-1.596-0.48-2.325c-0.32-0.729-0.75-1.365-1.29-1.905s-1.175-0.97-1.905-1.29S31.509,6.06,30.689,6.06z"/>
	<path fill="#FFFFFF" d="M65.699,24.06h-5.88v-12.9c0-0.72-0.135-1.395-0.405-2.025c-0.27-0.63-0.64-1.175-1.11-1.635
		c-0.47-0.46-1.02-0.825-1.65-1.095C56.024,6.135,55.359,6,54.659,6c-0.72,0-1.395,0.135-2.025,0.405
		c-0.63,0.27-1.185,0.635-1.665,1.095c-0.48,0.46-0.855,1.005-1.125,1.635c-0.27,0.631-0.405,1.306-0.405,2.025v12.9h-5.88v-12.9
		c0-1.52,0.29-2.955,0.87-4.305c0.58-1.351,1.375-2.53,2.385-3.54c1.01-1.01,2.185-1.806,3.525-2.385c1.34-0.58,2.78-0.87,4.32-0.87
		c1.52,0,2.955,0.29,4.305,0.87c1.35,0.579,2.52,1.375,3.51,2.385c0.99,1.01,1.775,2.189,2.355,3.54
		c0.58,1.35,0.87,2.785,0.87,4.305V24.06z"/>
	<path fill="#00AEEF" d="M87.839,24.12h-5.881v-12.9c0-0.72-0.135-1.395-0.403-2.024c-0.271-0.63-0.642-1.175-1.111-1.635
		c-0.469-0.46-1.021-0.825-1.647-1.096C78.164,6.195,77.5,6.06,76.798,6.06c-0.719,0-1.395,0.135-2.024,0.404
		C74.145,6.735,73.589,7.1,73.109,7.56s-0.855,1.005-1.125,1.635S71.58,10.5,71.58,11.219v12.9h-5.88v-12.9
		c0-1.52,0.29-2.954,0.87-4.305c0.58-1.35,1.375-2.53,2.386-3.54c1.01-1.01,2.185-1.805,3.523-2.385s2.781-0.87,4.32-0.87
		c1.52,0,2.955,0.29,4.305,0.87c1.352,0.58,2.521,1.375,3.51,2.385c0.99,1.01,1.775,2.19,2.355,3.54
		c0.58,1.351,0.871,2.785,0.871,4.305V24.12z"/>
	<path fill="#FFFFFF" d="M133.468,15.313l-6.518,0.001l1.098,1.098c-0.579,0.579-1.239,1.023-1.977,1.333
		c-0.74,0.311-1.521,0.465-2.342,0.465s-1.6-0.16-2.34-0.479c-0.741-0.32-1.385-0.75-1.934-1.29c-0.552-0.54-0.987-1.181-1.308-1.92
		c-0.319-0.74-0.479-1.53-0.479-2.37s0.162-1.63,0.479-2.37c0.321-0.74,0.756-1.38,1.308-1.92c0.549-0.54,1.193-0.97,1.934-1.29
		s1.52-0.48,2.34-0.48s1.602,0.146,2.342,0.436c0.739,0.29,1.399,0.725,1.979,1.305l4.201-4.2c-1.14-1.14-2.44-2.015-3.899-2.625
		c-1.461-0.609-3-0.915-4.621-0.915c-1.66,0-3.215,0.315-4.664,0.945c-1.452,0.63-2.721,1.49-3.812,2.58
		c-1.09,1.09-1.948,2.37-2.58,3.84c-0.629,1.47-0.944,3.035-0.944,4.695s0.315,3.215,0.944,4.665c0.632,1.45,1.49,2.72,2.58,3.81
		c1.091,1.09,2.361,1.95,3.812,2.58c1.449,0.63,3.004,0.945,4.664,0.945c1.622,0,3.161-0.304,4.621-0.915
		c1.458-0.609,2.757-1.484,3.896-2.622l1.218,1.218L133.468,15.313z"/>
	<path fill="#FFFFFF" d="M98.248,17.7c-0.74-0.32-1.389-0.76-1.949-1.32c-0.561-0.56-1-1.209-1.319-1.949S94.5,12.9,94.5,12.06
		c0-0.841,0.16-1.63,0.479-2.37s0.76-1.391,1.319-1.95c0.562-0.56,1.209-1,1.949-1.32c0.74-0.318,1.531-0.479,2.371-0.479
		c1.141,0,2.174,0.285,3.105,0.854c0.93,0.57,1.654,1.325,2.174,2.266h-9.6l-0.031,5.444l12.688,0.062l2.024,0.005
		c-0.159-0.781-0.239-1.588-0.239-2.422c0-1.66,0.316-3.226,0.945-4.695c0.014-0.033,0.031-0.062,0.046-0.096
		c-0.63-1.468-1.487-2.746-2.577-3.835c-1.09-1.09-2.371-1.95-3.84-2.58C103.844,0.315,102.279,0,100.619,0
		s-3.225,0.315-4.695,0.945s-2.75,1.49-3.84,2.58s-1.949,2.37-2.58,3.84s-0.944,3.035-0.944,4.695c0,1.659,0.313,3.225,0.944,4.694
		c0.631,1.471,1.49,2.75,2.58,3.84c1.09,1.091,2.369,1.95,3.84,2.58c1.472,0.631,3.035,0.945,4.695,0.945h9.211l0.088-5.939h-9.299
		C99.779,18.18,98.988,18.021,98.248,17.7z"/>
</g>
</svg>
