<?xml version="1.0" encoding="utf-8"?>
<!-- Generator: Adobe Illustrator 16.0.0, SVG Export Plug-In . SVG Version: 6.00 Build 0)  -->
<!DOCTYPE svg PUBLIC "-//W3C//DTD SVG 1.1//EN" "http://www.w3.org/Graphics/SVG/1.1/DTD/svg11.dtd">
<svg version="1.1" id="Layer_1" xmlns="http://www.w3.org/2000/svg" xmlns:xlink="http://www.w3.org/1999/xlink" x="0px" y="0px"
	 width="44.28px" height="24.06px" viewBox="43.559 0.06 44.28 24.06" enable-background="new 43.559 0.06 44.28 24.06"
	 xml:space="preserve">
<g>
	<path fill="#FFFFFF" d="M65.699,24.06h-5.88v-12.9c0-0.72-0.135-1.395-0.405-2.025c-0.27-0.63-0.64-1.175-1.11-1.635
		c-0.47-0.46-1.02-0.825-1.65-1.095C56.024,6.135,55.359,6,54.659,6c-0.72,0-1.395,0.135-2.025,0.405
		c-0.63,0.27-1.185,0.635-1.665,1.095c-0.48,0.46-0.855,1.005-1.125,1.635c-0.27,0.631-0.405,1.306-0.405,2.025v12.9h-5.88v-12.9
		c0-1.52,0.29-2.955,0.87-4.305c0.58-1.351,1.375-2.53,2.385-3.54c1.01-1.01,2.185-1.806,3.525-2.385c1.34-0.58,2.78-0.87,4.32-0.87
		c1.52,0,2.955,0.29,4.305,0.87c1.35,0.579,2.52,1.375,3.51,2.385c0.99,1.01,1.775,2.189,2.355,3.54
		c0.58,1.35,0.87,2.785,0.87,4.305V24.06z"/>
	<path fill="#00AEEF" d="M87.839,24.12h-5.881v-12.9c0-0.72-0.135-1.395-0.403-2.024c-0.271-0.63-0.642-1.175-1.111-1.635
		c-0.469-0.46-1.021-0.825-1.647-1.096C78.164,6.195,77.5,6.06,76.798,6.06c-0.719,0-1.395,0.135-2.024,0.404
		C74.145,6.735,73.589,7.1,73.109,7.56s-0.855,1.005-1.125,1.635S71.58,10.5,71.58,11.219v12.9h-5.88v-12.9
		c0-1.52,0.29-2.954,0.87-4.305c0.58-1.35,1.375-2.53,2.386-3.54c1.01-1.01,2.185-1.805,3.523-2.385s2.781-0.87,4.32-0.87
		c1.52,0,2.955,0.29,4.305,0.87c1.352,0.58,2.521,1.375,3.51,2.385c0.99,1.01,1.775,2.19,2.355,3.54
		c0.58,1.351,0.871,2.785,0.871,4.305V24.12z"/>
</g>
</svg>
